<?xml version="1.0" encoding="UTF-8"?>
<svg id="Layer_2" data-name="Layer 2" xmlns="http://www.w3.org/2000/svg" viewBox="0 0 762.92 707">
  <defs>
    <style>
      .cls-1 {
        stroke-width: 0px;
      }
    </style>
  </defs>
  <g id="Layer_1-2" data-name="Layer 1">
    <g>
      <path class="cls-1" d="m696.85,422.64c-45.76-31.05-112.76-63.74-194.48-96.42l42.49-119.3c3.27-9.81-1.63-22.88-13.07-26.15-9.81-3.27-22.88,1.63-26.15,13.07l-42.49,117.67c-9.81-3.27-21.25-8.17-31.05-11.44L528.52,27.14c3.27-9.81-1.63-22.88-13.07-26.15-9.81-3.27-22.88,1.63-26.15,13.07l-98.06,272.92c-91.52-31.05-176.5-52.3-241.87-60.47-86.62-11.44-134.01-1.63-147.08,32.69-14.71,44.13,45.76,84.98,65.37,98.06,44.13,29.42,107.86,62.1,186.31,93.15l-81.71,228.8c-3.27,9.81,1.63,22.88,13.07,26.15,1.63,0,4.9,1.63,6.54,1.63,8.17,0,16.34-4.9,19.61-13.07l81.71-228.8c9.81,3.27,21.25,8.17,31.05,11.44l-49.03,135.64c-3.27,9.81,1.63,22.88,13.07,26.15,1.63,0,4.9,1.63,6.54,1.63,8.17,0,16.34-4.9,19.61-13.07l49.03-135.64c94.79,32.69,183.04,53.93,250.04,63.74,86.62,11.44,134.01,1.63,147.08-32.69,14.71-45.76-44.13-86.62-63.74-99.69Zm-246.78-71.91l-9.81,27.78c-9.81-3.27-21.25-8.17-31.05-11.44l9.81-26.15c9.81,1.63,21.25,6.54,31.05,9.81Zm272.92,156.89s-11.44,17.98-102.96,6.54c-67.01-9.81-158.52-32.69-256.58-67.01-116.03-39.22-214.09-84.98-271.29-122.57-44.13-29.42-50.66-47.39-49.03-50.66,0,0,11.44-17.98,102.96-6.54,62.1,8.17,143.82,29.42,233.7,58.83l-9.81,26.15c-91.52-29.42-143.82-39.22-145.45-39.22-9.81-1.63-19.61,4.9-22.88,13.07-3.27,8.17,0,17.98,8.17,22.88,0,0,1.63,0,1.63,1.63,1.63,1.63,55.57,31.05,161.79,67.01,106.23,35.95,166.7,45.76,168.33,47.39,9.81,1.63,19.61-4.9,22.88-13.07,3.27-9.81,0-19.61-9.81-24.51-1.63-1.63-27.78-14.71-76.81-35.95l9.81-27.78c78.45,31.05,143.82,62.1,184.67,91.52,44.13,31.05,50.66,47.39,50.66,52.3Z"/>
      <path class="cls-1" d="m358.55,221.62c1.63,0,4.9,1.63,6.54,1.63,8.17,0,16.34-4.9,19.61-13.07l40.86-114.4c3.27-11.44-1.63-22.88-13.07-26.15-9.81-3.27-22.88,1.63-26.15,13.07l-40.86,114.4c-3.27,9.81,3.27,21.25,13.07,24.51Z"/>
      <path class="cls-1" d="m402.68,541.94c-9.81-3.27-22.88,1.63-26.15,13.07l-34.32,98.06c-3.27,11.44,1.63,22.88,13.07,26.15,1.63,0,4.9,1.63,6.54,1.63,8.17,0,16.34-4.9,19.61-13.07l34.32-98.06c3.27-13.07-1.63-24.51-13.07-27.78Z"/>
    </g>
  </g>
</svg>